<svg width="139" height="37" viewBox="0 0 139 37" fill="none" xmlns="http://www.w3.org/2000/svg">
<circle cx="18.5" cy="18.5" r="17.5" stroke="black" stroke-width="2"/>
<path d="M27.192 15.0669L24.8355 17.4235C24.365 22.883 19.7609 27.125 14.2501 27.125C13.1154 27.125 12.1802 26.9451 11.4706 26.5902C10.8979 26.3039 10.6633 25.9966 10.6051 25.9092C10.5528 25.8308 10.519 25.7417 10.506 25.6485C10.4931 25.5552 10.5014 25.4602 10.5303 25.3706C10.5592 25.281 10.6079 25.1991 10.6729 25.131C10.7379 25.0629 10.8175 25.0103 10.9056 24.9773C10.9257 24.9697 12.7687 24.2618 13.9599 22.9141C13.219 22.3865 12.5669 21.7442 12.0282 21.0114C10.9572 19.558 9.82457 17.0339 10.5101 13.2632C10.5305 13.151 10.5813 13.0465 10.6568 12.961C10.7324 12.8756 10.8299 12.8124 10.9387 12.7784C11.0476 12.7444 11.1637 12.7408 11.2745 12.7681C11.3852 12.7953 11.4864 12.8524 11.567 12.933C11.5946 12.9605 14.1953 15.5245 17.3747 16.3527L17.3751 15.8747C17.3818 14.874 17.7856 13.9169 18.4977 13.2139C19.2098 12.5108 20.1719 12.1192 21.1726 12.1253C21.8227 12.1343 22.4593 12.3117 23.0203 12.6403C23.5813 12.9689 24.0475 13.4373 24.3733 13.9999L26.7501 14C26.8737 14 26.9945 14.0366 27.0973 14.1053C27.2001 14.174 27.2802 14.2716 27.3275 14.3858C27.3748 14.5 27.3872 14.6257 27.3631 14.7469C27.339 14.8681 27.2794 14.9795 27.192 15.0669Z" fill="black"/>
<circle cx="69.5" cy="18.5" r="17.5" stroke="black" stroke-width="2"/>
<path d="M76.5 26.5C76.5 26.6658 76.4341 26.8247 76.3169 26.9419C76.1997 27.0592 76.0408 27.125 75.875 27.125C75.2122 27.1243 74.5767 26.8606 74.1081 26.3919C73.6394 25.9233 73.3758 25.2878 73.375 24.625V24C73.3746 23.6686 73.2428 23.3509 73.0085 23.1165C72.7741 22.8822 72.4564 22.7504 72.125 22.75H71.1875V25.875C71.1879 26.2064 71.3197 26.5241 71.554 26.7585C71.7884 26.9928 72.1061 27.1246 72.4375 27.125C72.6033 27.125 72.7622 27.1909 72.8794 27.3081C72.9967 27.4253 73.0625 27.5843 73.0625 27.75C73.0625 27.9158 72.9967 28.0747 72.8794 28.192C72.7622 28.3092 72.6033 28.375 72.4375 28.375C71.7747 28.3743 71.1392 28.1106 70.6706 27.6419C70.2019 27.1733 69.9383 26.5378 69.9375 25.875V22.75H68.0625V25.875C68.0617 26.5378 67.7981 27.1733 67.3294 27.6419C66.8608 28.1106 66.2253 28.3743 65.5625 28.375C65.3967 28.375 65.2378 28.3092 65.1206 28.192C65.0033 28.0747 64.9375 27.9158 64.9375 27.75C64.9375 27.5843 65.0033 27.4253 65.1206 27.3081C65.2378 27.1909 65.3967 27.125 65.5625 27.125C65.8939 27.1246 66.2116 26.9928 66.446 26.7585C66.6803 26.5241 66.8121 26.2064 66.8125 25.875V22.75H65.875C65.5436 22.7504 65.2259 22.8822 64.9915 23.1165C64.7572 23.3509 64.6254 23.6686 64.625 24V24.625C64.6242 25.2878 64.3606 25.9233 63.8919 26.3919C63.4233 26.8606 62.7878 27.1243 62.125 27.125C61.9592 27.125 61.8003 27.0592 61.6831 26.942C61.5658 26.8247 61.5 26.6658 61.5 26.5C61.5 26.3343 61.5658 26.1753 61.6831 26.0581C61.8003 25.9409 61.9592 25.875 62.125 25.875C62.4564 25.8746 62.7741 25.7428 63.0085 25.5085C63.2428 25.2741 63.3746 24.9564 63.375 24.625V24C63.3752 23.5803 63.4812 23.1675 63.683 22.7995C63.8848 22.4315 64.176 22.1203 64.5297 21.8945C63.978 21.4884 63.5295 20.9582 63.2204 20.3469C62.9112 19.7355 62.7501 19.0601 62.75 18.375V17.75C62.7576 16.9732 62.9646 16.2113 63.3512 15.5375C63.1599 14.9213 63.0984 14.2721 63.1708 13.631C63.2431 12.9898 63.4475 12.3706 63.7712 11.8125C63.8261 11.7175 63.905 11.6386 64 11.5837C64.095 11.5289 64.2028 11.5 64.3125 11.5C65.0406 11.4984 65.7589 11.6671 66.4102 11.9926C67.0614 12.3182 67.6274 12.7916 68.0631 13.3749L69.9369 13.375C70.3725 12.7916 70.9386 12.3182 71.5898 11.9927C72.241 11.6671 72.9594 11.4984 73.6875 11.5C73.7972 11.5 73.905 11.5289 74 11.5837C74.095 11.6386 74.1739 11.7175 74.2288 11.8125C74.5525 12.3706 74.7569 12.9898 74.8292 13.631C74.9015 14.2721 74.8401 14.9213 74.6488 15.5375C75.0354 16.2113 75.2424 16.9732 75.25 17.75V18.375C75.2499 19.0601 75.0888 19.7355 74.7796 20.3469C74.4705 20.9582 74.0219 21.4884 73.4703 21.8945C73.824 22.1203 74.1152 22.4315 74.317 22.7995C74.5188 23.1675 74.6248 23.5803 74.625 24V24.625C74.6254 24.9564 74.7572 25.2741 74.9915 25.5085C75.2259 25.7428 75.5436 25.8746 75.875 25.875C76.0408 25.875 76.1997 25.9409 76.3169 26.0581C76.4341 26.1753 76.5 26.3343 76.5 26.5Z" fill="black"/>
<circle cx="120.5" cy="18.5" r="17.5" stroke="black" stroke-width="2"/>
<path d="M124.579 16.3439C125.141 15.9377 125.56 15.3638 125.775 14.7047C125.991 14.0456 125.992 13.3352 125.778 12.6755C125.564 12.0159 125.147 11.4409 124.586 11.0332C124.025 10.6255 123.35 10.4061 122.656 10.4064H117.344C116.65 10.4061 115.975 10.6255 115.414 11.0332C114.853 11.4409 114.436 12.0159 114.222 12.6755C114.008 13.3352 114.009 14.0456 114.225 14.7047C114.44 15.3638 114.859 15.9377 115.421 16.3439C115 16.6475 114.658 17.0467 114.422 17.5085C114.186 17.9702 114.062 18.4815 114.063 19.0001C114.063 19.5188 114.186 20.03 114.422 20.4918C114.658 20.9536 115 21.3527 115.421 21.6563C114.966 21.9857 114.603 22.4262 114.367 22.9359C114.132 23.4455 114.031 24.0071 114.074 24.567C114.117 25.1268 114.304 25.6662 114.615 26.1334C114.927 26.6005 115.353 26.9799 115.853 27.2352C116.353 27.4905 116.911 27.6131 117.472 27.5913C118.033 27.5695 118.579 27.4041 119.058 27.1108C119.537 26.8175 119.932 26.4062 120.207 25.9162C120.481 25.4263 120.625 24.8741 120.625 24.3126V21.5742C120.967 21.8449 121.361 22.0444 121.781 22.1612C122.202 22.278 122.642 22.3096 123.075 22.2541C123.508 22.1987 123.925 22.0574 124.303 21.8384C124.681 21.6195 125.011 21.3273 125.274 20.9791C125.537 20.6309 125.728 20.2336 125.836 19.8105C125.944 19.3875 125.966 18.9472 125.901 18.5154C125.837 18.0837 125.686 17.6692 125.459 17.2963C125.232 16.9234 124.933 16.5996 124.579 16.3439ZM124.688 13.6877C124.687 14.2259 124.473 14.742 124.092 15.1228C123.712 15.5035 123.196 15.7179 122.658 15.7189L122.656 15.7189L122.653 15.7189L120.625 15.7189V11.6564H122.656C123.195 11.657 123.711 11.8712 124.092 12.252C124.473 12.6328 124.687 13.1491 124.688 13.6877ZM122.656 21.0314C122.118 21.0312 121.602 20.8174 121.221 20.4368C120.84 20.0562 120.626 19.54 120.626 19.0016C120.625 18.4633 120.838 17.9468 121.219 17.5656C121.599 17.1845 122.115 16.9699 122.653 16.9689H122.656L122.658 16.9689C123.196 16.9696 123.712 17.1841 124.092 17.5651C124.473 17.9461 124.686 18.4625 124.686 19.0009C124.686 19.5392 124.472 20.0555 124.091 20.4362C123.711 20.817 123.195 21.031 122.656 21.0314Z" fill="black"/>
</svg>
